<svg xmlns="http://www.w3.org/2000/svg" x="0px" y="0px" width="10.203px" height="10px" viewBox="0 0 10.203 10" enable-background="new 0 0 10.203 10" xml:space="preserve">
<g>
	<path d="M0.277,9.501c0-0.117,0.042-0.211,0.126-0.278l8.204-8.229H5.544c-0.118,0-0.215-0.038-0.291-0.114   C5.177,0.803,5.139,0.706,5.139,0.588c0-0.118,0.038-0.215,0.114-0.291c0.076-0.076,0.173-0.114,0.291-0.114h4.052   c0.051,0,0.101,0.009,0.151,0.025c0.102,0.051,0.178,0.126,0.229,0.228c0.017,0.051,0.025,0.101,0.025,0.152V4.64   c0,0.118-0.038,0.215-0.114,0.291S9.713,5.044,9.596,5.044c-0.118,0-0.216-0.038-0.291-0.114C9.229,4.854,9.19,4.758,9.19,4.64   V1.576L0.96,9.78c-0.186,0.202-0.372,0.202-0.557,0C0.319,9.713,0.277,9.62,0.277,9.501z"/>
</g>
</svg>